<svg xmlns="http://www.w3.org/2000/svg" viewBox="0 0 754 112">
  <defs>
    <style>
      .cls-1 {
        fill: #181f48;
        font-size: 60px;
        font-family: ProximaNovaA-Bold, Proxima Nova Alt;
        font-weight: 700;
      }

      .cls-2 {
        fill: #0051bd;
      }

      .cls-3 {
        fill: #00eccf;
      }

      .cls-4 {
        fill: #00cab1;
      }

      .cls-5 {
        fill: #d11372;
      }
    </style>
  </defs>
  <g id="loading" transform="translate(-996 -1633)">
    <text id="Management_SMKN_5" data-name="Management SMKN 5" class="cls-1" transform="translate(1149 1708)"><tspan x="0" y="0">Management SMKN 5</tspan></text>
    <g id="Group_1" data-name="Group 1" transform="translate(-36 419)">
      <rect id="Rectangle_2" data-name="Rectangle 2" class="cls-2" width="53" height="58" rx="6" transform="translate(1032 1214)"/>
      <rect id="Rectangle_3" data-name="Rectangle 3" class="cls-3" width="53" height="58" rx="6" transform="translate(1064 1243)"/>
      <path id="Rectangle_4" data-name="Rectangle 4" class="cls-4" d="M0,0H21a6,6,0,0,1,6,6V52a6,6,0,0,1-6,6H0a0,0,0,0,1,0,0V0A0,0,0,0,1,0,0Z" transform="translate(1090 1243)"/>
      <ellipse id="Ellipse_1" data-name="Ellipse 1" class="cls-5" cx="27.5" cy="27" rx="27.5" ry="27" transform="translate(1095 1272)"/>
    </g>
  </g>
</svg>
